# AST/ASF file generated using VICON BodyLanguage
# -----------------------------------------------
:version 1.10
:name VICON
:units
  mass 1.0
  length 0.45
  angle deg
:documentation
   .ast/.asf automatically generated from VICON data using
   VICON BodyBuilder and BodyLanguage model FoxedUp or BRILLIANT.MOD
:root
   order TX TY TZ RX RY RZ
   axis XYZ
   position 0 0 0  
   orientation 0 0 0 
:bonedata
  begin
     id 1 
     name lhipjoint
     direction 0.54267 -0.795011 0.271047 
     length 2.39899 
     axis 0 0 0  XYZ
  end
  begin
     id 2 
     name lfemur
     direction 0.34202 -0.939693 0  
     length 7.49701  
     axis 0 0 20  XYZ
    dof rx ry rz
    limits (-160.0 20.0)
           (-70.0 70.0)
           (-60.0 70.0)
  end
  begin
     id 3 
     name ltibia
     direction 0.34202 -0.939693 0   
     length 8.1668   
     axis 0 0 20   XYZ
    dof rx
    limits (-10.0 170.0)
  end
  begin
     id 4 
     name lfoot
     direction 0.0736283 -0.202292 0.976554   
     length 2.13544   
     axis -90 7.62852e-016 20   XYZ
    dof rx rz
    limits (-45.0 90.0)
           (-70.0 20.0)
  end
  begin
     id 5 
     name ltoes
     direction 1.53557e-011 -4.22024e-011 1   
     length 1.07411   
     axis -90 7.62852e-016 20   XYZ
    dof rx
    limits (-90.0 20.0)
  end
  begin
     id 6 
     name rhipjoint
     direction -0.538061 -0.797813 0.272002   
     length 2.39057  
     axis 0 0 0  XYZ 
  end
  begin
     id 7 
     name rfemur
     direction -0.34202 -0.939693 0   
     length 7.50152   
     axis 0 0 -20   XYZ
    dof rx ry rz
    limits (-160.0 20.0)
           (-70.0 70.0)
           (-70.0 60.0)
  end
  begin
     id 8 
     name rtibia
     direction -0.34202 -0.939693 0   
     length 8.05793   
     axis 0 0 -20   XYZ
    dof rx
    limits (-10.0 170.0)
 end
 begin
     id 9 
     name rfoot
     direction -0.0765195 -0.210236 0.974652   
     length 2.28698  
     axis -90 -7.62852e-016 -20   XYZ
    dof rx rz
    limits (-45.0 90.0)
           (-20.0 70.0)
  end
  begin
     id 10 
     name rtoes
     direction -1.53542e-011 -4.21847e-011 1   
     length 1.14762   
     axis -90 -7.62852e-016 -20   XYZ
    dof rx
    limits (-90.0 20.0)
  end
  begin
     id 11 
     name lowerback
     direction -0.0217239 0.996592 -0.0795765   
     length 2.08176   
     axis 0 0 0   XYZ
    dof rx ry rz
    limits (-20.0 45.0)
           (-30.0 30.0)
           (-30.0 30.0)
  end
  begin
     id 12 
     name upperback
     direction -0.00563773 0.999651 -0.0258155   
     length 2.08898   
     axis 0 0 0   XYZ
    dof rx ry rz
    limits (-20.0 45.0)
           (-30.0 30.0)
           (-30.0 30.0)
  end
  begin
     id 13 
     name thorax
     direction 0.0032706 0.999923 0.0119599   
     length 2.0968   
     axis 0 0 0   XYZ
    dof rx ry rz
    limits (-20.0 45.0)
           (-30.0 30.0)
           (-30.0 30.0)
  end
  begin
     id 14 
     name lowerneck
     direction -0.0285886 0.99568 0.0883427   
     length 1.81272   
     axis 0 0 0   XYZ
    dof rx ry rz
    limits (-20.0 45.0)
           (-30.0 30.0)
           (-30.0 30.0)
  end
  begin
     id 15 
     name upperneck
     direction 0.0807535 0.97985 -0.18268   
     length 1.82518   
     axis 0 0 0   XYZ
    dof rx ry rz
    limits (-20.0 45.0)
           (-30.0 30.0)
           (-30.0 30.0)
  end
  begin
     id 16
     name head
     direction 0.0236605 0.997053 -0.0729767  
     length 1.84443  
     axis 0 0 0   XYZ
    dof rx ry rz
    limits (-20.0 45.0)
           (-30.0 30.0)
           (-30.0 30.0)
  end
  begin
     id 17 
     name lclavicle
     direction 0.918986 0.39378 -0.0200683  
     length 3.27822  
     axis 0 0 0   XYZ
    dof ry rz
    limits (-20.0 10.0)
           (0.0 20.0)
  end
  begin
     id 18 
     name lhumerus
     direction 1 -4.4897e-011 2.09544e-027   
     length 5.5568   
     axis 180 -30 -90   XYZ
    dof rx ry rz
    limits (-60.0 90.0)
           (-90.0 90.0)
           (-90.0 90.0)
  end
  begin
     id 19
     name lradius
     direction 1 -4.48957e-011 -1.27696e-026   
     length 3.63979   
     axis 180 -30 -90   XYZ
    dof rx
    limits (-10.0 170.0)
  end
  begin
     id 20
     name lwrist
     direction 1 -4.49001e-011 -1.49001e-026   
     length 1.8199   
     axis 9.0955e-015 90 90   XYZ
    dof ry
    limits (-180.0 0.0)
 end
  begin
     id 21 
     name lhand
     direction 1 -4.48709e-011 -2.9758e-026   
     length 0.569419   
     axis 1.90115e-014 90 90   XYZ
    dof rx rz
    limits (-90.0 90.0)
           (-45.0 45.0)
  end
  begin
     id 22 
     name lfingers
     direction 1 -4.49175e-011 -5.96505e-026   
     length 0.45908   
     axis 3.80223e-014 90 90   XYZ
    dof rx
    limits (0.0 90.0)
  end
  begin
     id 23
     name lthumb
     direction 0.707107 -6.34864e-011 0.707107   
     length 0.65915   
     axis -90 45 -3.84942e-014   XYZ
    dof rx rz
    limits (-45.0 45.0)
           (-45.0 45.0)
  end
  begin
     id 24 
     name rclavicle
     direction -0.911913 0.396426 -0.106115   
     length 3.46301  
     axis 0 0 0   XYZ 
    dof ry rz
    limits (-10.0 20.0)
           (-20.0 0.0)
  end
  begin
     id 25 
     name rhumerus
     direction -1 -4.48965e-011 7.78516e-028  
     length 5.34339   
     axis 180 30 90   XYZ
    dof rx ry rz
    limits (-90.0 60.0)
           (-90.0 90.0)
           (-90.0 90.0)
  end
  begin
     id 26 
     name rradius
     direction -1 -4.48948e-011 -5.79823e-027   
     length 3.65101   
     axis 180 30 90   XYZ
    dof rx
    limits (-10.0 170.0)
  end
  begin
     id 27 
     name rwrist
     direction -1 -4.48995e-011 -1.48996e-026   
     length 1.8255   
     axis 9.0955e-015 -90 -90   XYZ
    dof ry
    limits (-180.0 0.0)
  end
  begin
     id 28
     name rhand
     direction -1 -4.48957e-011 -2.97937e-026   
     length 0.694249   
     axis 1.90115e-014 -90 -90   XYZ
    dof rx rz
    limits (-90.0 90.0)
           (-45.0 45.0)
  end
  begin
     id 29
     name rfingers
     direction -1 -4.4898e-011 -5.95943e-026   
     length 0.559721   
     axis 3.80223e-014 -90 -90   XYZ
    dof rx
    limits (0.0 90.0)
  end
  begin
     id 30
     name rthumb
     direction -0.707107 -6.34969e-011 0.707107   
     length 0.803651   
     axis -90 -45 3.84942e-014   XYZ
    dof rx rz
    limits (-45.0 45.0)
           (-45.0 45.0)
  end
:hierarchy
  begin
    root lhipjoint rhipjoint lowerback
    lhipjoint lfemur
    lfemur ltibia
    ltibia lfoot
    lfoot ltoes
    rhipjoint rfemur
    rfemur rtibia
    rtibia rfoot
    rfoot rtoes
    lowerback upperback
    upperback thorax
    thorax lowerneck lclavicle rclavicle
    lowerneck upperneck
    upperneck head
    lclavicle lhumerus
    lhumerus lradius
    lradius lwrist
    lwrist lhand lthumb
    lhand lfingers
    rclavicle rhumerus
    rhumerus rradius
    rradius rwrist
    rwrist rhand rthumb
    rhand rfingers
  end

#!OML:ASF H:\Terrain\Walking\May29\JustinRory\rory.ASF
:FULLY-SPECIFIED
:DEGREES
673
root 6.49949 18.9476 8.93861 -174.314 0.587595 -180.815
lowerback -0.577971 0.905511 -2.9541
upperback -0.614891 1.2276 -0.197411
thorax -0.363663 0.630084 1.45515
lowerneck -11.383 -4.08587 -4.69206
upperneck 14.4991 -5.41308 2.85398
head 6.48917 -2.72879 1.18048
rclavicle -1.49089e-015 6.85807e-015
rhumerus -27.4028 35.7562 -103.853
rradius 111.1
rwrist -22.4485
rhand 39.3293 50.8654
rfingers 7.12502
rthumb 61.8369 39.1699
lclavicle -1.49089e-015 6.85807e-015
lhumerus -29.0593 -41.0756 110.791
lradius 117.156
lwrist 20.6043
lhand -33.1918 10.1628
lfingers 7.12502
lthumb -6.39935 40.0461
rfemur -4.184 11.4217 15.5375
rtibia 9.51942
rfoot -5.20224 -20.5
rtoes 13.6313
lfemur 0.810822 -4.7066 -18.1206
ltibia 1.99687
lfoot -7.80077 11.8694
ltoes -7.47024
674
root 6.49643 18.9468 8.92669 -174.256 0.562797 -181.024
lowerback -0.803003 0.857091 -3.2303
upperback -0.659316 1.17458 -0.227726
thorax -0.285598 0.605177 1.58211
lowerneck -11.2117 -4.06157 -4.58418
upperneck 14.4664 -5.39304 2.74366
head 6.44226 -2.72591 1.13334
rclavicle -1.76421e-015 7.15625e-015
rhumerus -27.0847 35.8298 -103.626
rradius 110.857
rwrist -22.6941
rhand 41.7399 50.4785
rfingers 7.12502
rthumb 63.8208 41.453
lclavicle -1.76421e-015 7.15625e-015
lhumerus -28.8744 -41.207 110.582
lradius 117.016
lwrist 20.5741
lhand -33.2864 10.4865
lfingers 7.12502
lthumb -6.49075 40.367
rfemur -4.22888 11.3826 15.2839
rtibia 9.58808
rfoot -5.49359 -20.5643
rtoes 14.9333
lfemur 0.990836 -4.76104 -18.3708
ltibia 1.57297
lfoot -7.55572 11.9911
ltoes -8.07745
675
root 6.49141 18.9458 8.91048 -174.198 0.532902 -181.229
lowerback -1.06542 0.756276 -3.38421
upperback -0.672457 1.05421 -0.280886
thorax -0.147606 0.544629 1.61739
lowerneck -11.2952 -3.96739 -4.51039
upperneck 14.6016 -5.26322 2.62735
head 6.4896 -2.6699 1.09366
rclavicle 5.90142e-015 -3.27995e-015
rhumerus -26.7764 36.0545 -103.476
rradius 110.756
rwrist -22.9228
rhand 43.7637 49.2466
rfingers 7.12502
rthumb 65.4319 42.8056
lclavicle 5.90142e-015 -3.27995e-015
lhumerus -28.4729 -41.1761 110.244
lradius 116.769
lwrist 20.5505
lhand -33.642 10.7349
lfingers 7.12502
lthumb -6.83398 40.6046
rfemur -4.3677 11.3363 15.011
rtibia 9.8297
rfoot -5.77359 -20.622
rtoes 15.1973
lfemur 1.79072 -4.8158 -18.6093
ltibia -7.95139e-015
lfoot -6.80789 12.2548
ltoes -8.94472
676
root 6.48789 18.9442 8.89343 -174.161 0.554273 -181.208
lowerback -1.31898 0.743852 -3.38023
upperback -0.739174 1.04808 -0.245189
thorax -0.0741684 0.541943 1.65503
lowerneck -11.1607 -3.92951 -4.47895
upperneck 14.7357 -5.22295 2.52072
head 6.5039 -2.66421 1.05946
rclavicle -7.64079e-015 -3.67752e-015
rhumerus -26.6709 36.0508 -103.374
rradius 110.766
rwrist -22.9121
rhand 45.2397 46.9162
rfingers 7.12502
rthumb 66.5692 42.5893
lclavicle -7.64079e-015 -3.67752e-015
lhumerus -28.1469 -41.1904 110.098
lradius 116.509
lwrist 20.5915
lhand -33.9997 11.1831
lfingers 7.12502
lthumb -7.17925 41.0413
rfemur -4.44236 11.3675 14.9864
rtibia 9.99925
rfoot -5.72666 -20.5381
rtoes 14.1068
lfemur 1.82553 -4.80235 -18.6179
ltibia 4.77083e-015
lfoot -6.99779 12.2697
ltoes -8.77855
677
root 6.48759 18.9416 8.88217 -174.11 0.66573 -181.144
lowerback -1.49025 0.79886 -3.36674
upperback -0.86791 1.12836 -0.217244
thorax -0.11478 0.585542 1.67846
lowerneck -10.907 -3.92365 -4.44165
upperneck 14.8683 -5.2444 2.45187
head 6.5002 -2.68816 1.03273
rclavicle 9.15652e-015 -2.48481e-015
rhumerus -26.745 35.904 -103.373
rradius 110.797
rwrist -23.0464
rhand 47.4092 44.9399
rfingers 7.12502
rthumb 68.1713 44.1252
lclavicle 9.15652e-015 -2.48481e-015
lhumerus -27.9489 -41.3861 110.006
lradius 116.396
lwrist 20.638
lhand -34.1924 11.966
lfingers 7.12502
lthumb -7.36532 41.8178
rfemur -4.44136 11.4939 15.0236
rtibia 9.91228
rfoot -5.49067 -20.4288
rtoes 13.7641
lfemur 0.928087 -4.70096 -18.5781
ltibia 1.72162
lfoot -7.99982 11.9939
ltoes -7.14551
678
root 6.4873 18.9447 8.8737 -174.103 0.710002 -181.066
lowerback -1.57457 0.773735 -3.31777
upperback -0.92711 1.09708 -0.160701
thorax -0.126724 0.571088 1.70945
lowerneck -11.0399 -3.86048 -4.54937
upperneck 15.185 -5.15903 2.46654
head 6.62466 -2.65705 1.05706
rclavicle -1.3418e-015 5.26779e-015
rhumerus -26.6803 36.0042 -103.307
rradius 110.818
rwrist -23.3802
rhand 50.366 44.3985
rfingers 7.12502
rthumb 70.1893 49.2772
lclavicle -1.3418e-015 5.26779e-015
lhumerus -27.6562 -41.5148 109.806
lradius 116.408
lwrist 20.6275
lhand -34.4773 13.0114
lfingers 7.12502
lthumb -7.64031 42.8534
rfemur -4.34076 11.5612 15.1161
rtibia 9.71846
rfoot -5.34414 -20.4386
rtoes 13.7596
lfemur 0.336382 -4.66361 -18.5078
ltibia 2.9069
lfoot -8.50199 11.7753
ltoes -7.20937
679
root 6.48801 18.9502 8.85958 -174.184 0.663195 -180.986
lowerback -1.62359 0.767531 -3.24666
upperback -0.967082 1.0898 -0.146933
thorax -0.138726 0.568215 1.68405
lowerneck -11.1801 -3.81598 -4.60976
upperneck 15.5449 -5.12433 2.55652
head 6.76705 -2.64294 1.09274
rclavicle -1.84497e-015 3.18055e-015
rhumerus -26.6184 35.8972 -103.217
rradius 110.771
rwrist -23.3673
rhand 52.7349 46.2214
rfingers 7.12502
rthumb 71.6299 56.5403
lclavicle -1.84497e-015 3.18055e-015
lhumerus -27.6002 -41.7282 109.727
lradius 116.513
lwrist 20.736
lhand -34.7134 14.7648
lfingers 7.12502
lthumb -7.86818 44.5983
rfemur -4.12408 11.5476 15.2627
rtibia 9.58172
rfoot -5.31137 -20.6044
rtoes 13.2182
lfemur 0.21675 -4.71561 -18.4214
ltibia 3.34961
lfoot -8.52949 11.6819
ltoes -8.67129
